HIERARCHY
ROOT Hips
{
 OFFSET 0.000000 0.000000 0.000000
 CHANNELS 6 Xposition Yposition Zposition Yrotation Xrotation Zrotation
 JOINT Chest
 {
  OFFSET 0.000000 9.910571 -0.011835
  CHANNELS 3 Yrotation Xrotation Zrotation
  JOINT Chest2
  {
   OFFSET 0.000000 10.789473 0.021497
   CHANNELS 3 Yrotation Xrotation Zrotation
   JOINT Chest3
   {
    OFFSET 0.000000 9.748205 0.000000
    CHANNELS 3 Yrotation Xrotation Zrotation
    JOINT Chest4
    {
     OFFSET 0.000000 9.748205 0.000000
     CHANNELS 3 Yrotation Xrotation Zrotation
     JOINT Neck
     {
      OFFSET 0.000000 13.998479 0.000000
      CHANNELS 3 Yrotation Xrotation Zrotation
      JOINT Head
      {
       OFFSET 0.000000 9.082285 0.051121
       CHANNELS 3 Yrotation Xrotation Zrotation
       End Site
       {
        OFFSET 0.000000 17.246134 0.026702
       }
      }
     }
     JOINT RightCollar
     {
      OFFSET -3.284495 7.824262 0.000000
      CHANNELS 3 Yrotation Xrotation Zrotation
      JOINT RightShoulder
      {
       OFFSET -15.534540 0.000000 0.000000
       CHANNELS 3 Yrotation Xrotation Zrotation
       JOINT RightElbow
       {
        OFFSET 0.000000 -28.251216 0.000000
        CHANNELS 3 Yrotation Xrotation Zrotation
        JOINT RightWrist
        {
         OFFSET 0.000000 -23.418114 0.012537
         CHANNELS 3 Yrotation Xrotation Zrotation
         End Site
         {
          OFFSET 0.000000 -17.723959 0.000000
         }
        }
       }
      }
     }
     JOINT LeftCollar
     {
      OFFSET 3.284495 7.824262 0.000000
      CHANNELS 3 Yrotation Xrotation Zrotation
      JOINT LeftShoulder
      {
       OFFSET 15.534540 0.000000 0.000000
       CHANNELS 3 Yrotation Xrotation Zrotation
       JOINT LeftElbow
       {
        OFFSET 0.000000 -28.251216 0.000000
        CHANNELS 3 Yrotation Xrotation Zrotation
        JOINT LeftWrist
        {
         OFFSET 0.000000 -23.418114 0.012537
         CHANNELS 3 Yrotation Xrotation Zrotation
         End Site
         {
          OFFSET 0.000000 -17.723959 0.000000
         }
        }
       }
      }
     }
    }
   }
  }
 }
 JOINT RightHip
 {
  OFFSET -8.142657 0.057990 0.005917
  CHANNELS 3 Yrotation Xrotation Zrotation
  JOINT RightKnee
  {
   OFFSET 0.000000 -49.716894 0.008478
   CHANNELS 3 Yrotation Xrotation Zrotation
   JOINT RightAnkle
   {
    OFFSET 0.000000 -43.994153 0.004166
    CHANNELS 3 Yrotation Xrotation Zrotation
    JOINT RightToe
    {
     OFFSET 0.000000 -7.619154 17.822051
     CHANNELS 3 Yrotation Xrotation Zrotation
     End Site
     {
      OFFSET 0.000000 -1.595627 7.159905
     }
    }
   }
  }
 }
 JOINT LeftHip
 {
  OFFSET 8.142657 0.057990 0.005917
  CHANNELS 3 Yrotation Xrotation Zrotation
  JOINT LeftKnee
  {
   OFFSET 0.000000 -49.716894 0.008478
   CHANNELS 3 Yrotation Xrotation Zrotation
   JOINT LeftAnkle
   {
    OFFSET 0.000000 -43.994153 0.004166
    CHANNELS 3 Yrotation Xrotation Zrotation
    JOINT LeftToe
    {
     OFFSET 0.000000 -7.619154 17.822051
     CHANNELS 3 Yrotation Xrotation Zrotation
     End Site
     {
      OFFSET 0.000000 -1.595627 7.159905
     }
    }
   }
  }
 }
}
MOTION
Frames: 13
Frame Time: 0.008333
245.326398 56.670661 264.039770 -53.810365 -55.917619 2.687343 -2.099891 21.063088 -1.710230 -0.781749 9.355011 -0.713623 -0.781749 9.355011 -0.713623 -0.573992 7.017193 -0.521961 1.781076 19.107635 1.078981 2.916887 -0.704413 1.407419 -1.298650 9.489850 12.712166 24.210129 -17.849982 -24.451900 -4.168899 -43.225427 34.756283 1.911684 -9.442590 -9.195860 -1.106415 11.471283 -9.868981 -7.924505 -19.133668 17.580216 22.101140 -45.478216 -32.862246 -2.650679 4.344132 -10.311977 -7.420885 -31.248386 -9.393418 -92.855767 73.691181 -108.322104 -3.104120 -4.719381 7.166554 0.019614 0.217627 0.135544 4.491896 -31.629684 11.982985 76.930283 85.251282 79.403741 -0.881454 0.999181 -1.118722 -0.042346 -0.184725 -0.027979
245.325161 56.674513 264.038172 -53.816029 -55.919316 2.694801 -2.092082 21.059629 -1.710241 -0.778212 9.354758 -0.711475 -0.778212 9.354758 -0.711475 -0.571378 7.016996 -0.520408 1.774325 19.109390 1.080373 2.904081 -0.701203 1.412145 -1.317713 9.497099 12.713807 24.217687 -17.846436 -24.449971 -4.169066 -43.228547 34.757686 1.907663 -9.446714 -9.191323 -1.129339 11.474216 -9.866991 -7.930781 -19.131710 17.585006 22.071692 -45.472387 -32.887765 -2.622344 4.334398 -10.246230 -7.409450 -31.250114 -9.396588 -92.861850 73.679404 -108.327314 -3.083127 -4.704767 7.156547 0.014220 0.211035 0.119016 4.495206 -31.624535 11.980563 76.895407 85.246549 79.370062 -0.884363 1.000832 -1.122216 -0.042686 -0.185202 -0.025703
245.325349 56.677282 264.038601 -53.806185 -55.921497 2.695966 -2.093396 21.055916 -1.713336 -0.778096 9.354499 -0.711684 -0.778096 9.354499 -0.711684 -0.571289 7.016802 -0.520566 1.770790 19.112858 1.082581 2.896902 -0.694811 1.417367 -1.325190 9.504777 12.718162 24.216502 -17.848574 -24.447086 -4.157782 -43.235320 34.751235 1.897603 -9.449170 -9.189549 -1.137874 11.476754 -9.862968 -7.928893 -19.132591 17.585761 22.055787 -45.457162 -32.881010 -2.617539 4.323821 -10.244588 -7.402365 -31.249659 -9.411064 -92.869326 73.680631 -108.331702 -3.072246 -4.695173 7.143211 0.009671 0.209303 0.107589 4.488628 -31.620823 11.974895 76.899681 85.246563 79.364636 -0.882584 1.002286 -1.119545 -0.044915 -0.186858 -0.023324
245.324531 56.680268 264.037702 -53.798174 -55.925638 2.696037 -2.094714 21.052407 -1.714513 -0.779068 9.353075 -0.713510 -0.779068 9.353075 -0.713510 -0.571990 7.015738 -0.521920 1.771589 19.116346 1.086213 2.897204 -0.688383 1.423815 -1.332455 9.514941 12.720242 24.229707 -17.845353 -24.444955 -4.171393 -43.231578 34.753898 1.907804 -9.448839 -9.181934 -1.136858 11.486786 -9.855880 -7.937221 -19.134664 17.586935 22.026903 -45.454838 -32.909543 -2.592373 4.321429 -10.200194 -7.395746 -31.242704 -9.413972 -92.873107 73.680898 -108.327992 -3.089434 -4.690966 7.123252 0.020266 0.214031 0.103960 4.487640 -31.614197 11.966923 76.860114 85.250853 79.322245 -0.872242 0.999866 -1.115407 -0.052330 -0.184659 -0.024588
245.324296 56.682266 264.036662 -53.791966 -55.927254 2.694900 -2.091940 21.050664 -1.711909 -0.779041 9.353483 -0.713538 -0.779041 9.353483 -0.713538 -0.571969 7.016044 -0.521941 1.770696 19.117561 1.087710 2.895090 -0.686152 1.426858 -1.342476 9.517012 12.718361 24.232047 -17.848139 -24.431101 -4.162301 -43.235654 34.741687 1.909112 -9.446899 -9.178727 -1.142576 11.491685 -9.857037 -7.942652 -19.138506 17.591307 22.026389 -45.443362 -32.909289 -2.596436 4.313190 -10.193878 -7.394307 -31.242306 -9.419719 -92.877749 73.686723 -108.328814 -3.090066 -4.683422 7.107149 0.022169 0.214100 0.095753 4.484731 -31.611844 11.967001 76.831547 85.253367 79.290662 -0.877496 1.000436 -1.117842 -0.050628 -0.184713 -0.020906
245.322846 56.683487 264.034451 -53.797575 -55.928388 2.701467 -2.086909 21.049328 -1.706884 -0.778572 9.353469 -0.713640 -0.778572 9.353469 -0.713640 -0.571617 7.016033 -0.522025 1.768629 19.120674 1.086901 2.891562 -0.680368 1.426083 -1.348483 9.518914 12.711944 24.248383 -17.849206 -24.426881 -4.169795 -43.228736 34.732581 1.910123 -9.445125 -9.165631 -1.154250 11.498246 -9.858999 -7.941228 -19.146610 17.589163 21.988948 -45.441099 -32.928283 -2.571024 4.301187 -10.142103 -7.391915 -31.241269 -9.412936 -92.891175 73.699801 -108.347531 -3.104153 -4.679309 7.100849 0.027609 0.216131 0.086703 4.484485 -31.611537 11.969370 76.883960 85.250388 79.338497 -0.880252 0.999900 -1.116418 -0.053737 -0.186268 -0.021550
245.320958 56.684148 264.032110 -53.798472 -55.930237 2.706921 -2.086743 21.050176 -1.705039 -0.779242 9.353865 -0.714529 -0.779242 9.353865 -0.714529 -0.572104 7.016332 -0.522679 1.771312 19.121110 1.086847 2.896491 -0.679547 1.425135 -1.350936 9.518968 12.708882 24.253134 -17.846534 -24.418498 -4.170467 -43.235328 34.724786 1.911522 -9.439778 -9.166868 -1.161438 11.501396 -9.861604 -7.934477 -19.153683 17.587850 21.979217 -45.435666 -32.919520 -2.572870 4.291394 -10.141592 -7.394025 -31.242199 -9.408688 -92.906482 73.701009 -108.369717 -3.109809 -4.679076 7.092990 0.032550 0.218090 0.079988 4.488010 -31.610503 11.969656 76.876180 85.248621 79.329289 -0.890614 1.002841 -1.114801 -0.051318 -0.187643 -0.021410
245.318693 56.683789 264.028728 -53.797737 -55.925305 2.713497 -2.092366 21.051768 -1.708692 -0.780808 9.354733 -0.715338 -0.780808 9.354733 -0.715338 -0.573261 7.016985 -0.523259 1.775314 19.120315 1.086005 2.904088 -0.680994 1.422306 -1.350740 9.513244 12.707154 24.262076 -17.850753 -24.415740 -4.169035 -43.236807 34.720170 1.913562 -9.441180 -9.164259 -1.149170 11.494510 -9.861429 -7.930448 -19.158649 17.582965 21.935179 -45.437148 -32.941817 -2.554837 4.282518 -10.108201 -7.391193 -31.250058 -9.410137 -92.916362 73.690903 -108.379420 -3.108062 -4.680190 7.084908 0.035450 0.220802 0.072614 4.493624 -31.616561 11.965400 76.859473 85.238195 79.311227 -0.903196 1.009482 -1.111861 -0.052794 -0.189652 -0.021844
245.316763 56.683479 264.025893 -53.792647 -55.924720 2.714257 -2.096909 21.051145 -1.712837 -0.781342 9.355046 -0.715595 -0.781342 9.355046 -0.715595 -0.573657 7.017221 -0.523442 1.778945 19.119996 1.086245 2.910658 -0.681575 1.421584 -1.347585 9.515539 12.705644 24.263825 -17.855290 -24.407786 -4.164323 -43.238376 34.713482 1.912501 -9.442464 -9.164625 -1.144565 11.493863 -9.859505 -7.926166 -19.162693 17.580803 21.926177 -45.430631 -32.934021 -2.554747 4.275443 -10.107954 -7.396265 -31.253000 -9.410931 -92.925417 73.690307 -108.394708 -3.103995 -4.681053 7.086549 0.030613 0.222291 0.060534 4.491896 -31.619060 11.964373 76.855708 85.234957 79.305798 -0.908696 1.015317 -1.113235 -0.052085 -0.192249 -0.020412
245.314817 56.683636 264.023541 -53.791911 -55.925542 2.714462 -2.097258 21.050515 -1.711471 -0.781686 9.354093 -0.713825 -0.781686 9.354093 -0.713825 -0.573943 7.016505 -0.522114 1.781057 19.119600 1.084172 2.915187 -0.682271 1.417110 -1.338947 9.516200 12.702680 24.252737 -17.853158 -24.404737 -4.167465 -43.239108 34.712398 1.927893 -9.441256 -9.165023 -1.136683 11.499018 -9.863535 -7.916674 -19.163811 17.576498 21.875680 -45.439996 -32.959171 -2.526486 4.267116 -10.058562 -7.399446 -31.251932 -9.410432 -92.906031 73.681715 -108.376769 -3.090642 -4.680040 7.082602 0.028362 0.225049 0.052301 4.494962 -31.619170 11.966807 76.863358 85.231347 79.311924 -0.910845 1.013207 -1.108850 -0.055080 -0.189794 -0.021185
245.312356 56.685333 264.021855 -53.800626 -55.930281 2.722266 -2.096176 21.055422 -1.710465 -0.781893 9.354474 -0.713060 -0.781893 9.354474 -0.713060 -0.574109 7.016789 -0.521538 1.787865 19.119635 1.083567 2.927844 -0.682170 1.413833 -1.331511 9.509922 12.706104 24.251178 -17.846792 -24.410393 -4.170030 -43.239252 34.714388 1.932966 -9.439293 -9.167065 -1.130562 11.493086 -9.860243 -7.902242 -19.157265 17.562134 21.865742 -45.446857 -32.952758 -2.530529 4.264644 -10.063016 -7.392660 -31.245514 -9.415178 -92.901129 73.678289 -108.366577 -3.078920 -4.683025 7.075112 0.026122 0.228775 0.046665 4.501774 -31.612030 11.972856 76.845862 85.234323 79.290610 -0.913086 1.008167 -1.104227 -0.054976 -0.185984 -0.021498
245.312525 56.686712 264.021427 -53.794867 -55.926926 2.724066 -2.103089 21.057083 -1.714014 -0.783342 9.354835 -0.713026 -0.783342 9.354835 -0.713026 -0.575193 7.017062 -0.521489 1.795910 19.116921 1.083494 2.942601 -0.687172 1.411094 -1.320484 9.507487 12.703920 24.238907 -17.852691 -24.414921 -4.170418 -43.241304 34.727287 1.941726 -9.439288 -9.166363 -1.126252 11.484936 -9.858575 -7.880437 -19.157698 17.550883 21.811393 -45.454313 -32.973626 -2.510533 4.251265 -10.025735 -7.397105 -31.245903 -9.422917 -92.874555 73.683071 -108.342431 -3.075939 -4.684958 7.070747 0.022054 0.235340 0.041633 4.512902 -31.617030 11.966180 76.799248 85.224021 79.245087 -0.927517 1.018229 -1.098502 -0.055098 -0.189542 -0.020416
245.312160 56.688308 264.019585 -53.782359 -55.925854 2.712410 -2.105255 21.056383 -1.709236 -0.783983 9.355293 -0.711979 -0.783983 9.355293 -0.711979 -0.575689 7.017405 -0.520695 1.798251 19.113860 1.082834 2.947099 -0.692836 1.409093 -1.321796 9.510559 12.701284 24.238135 -17.862700 -24.412336 -4.175487 -43.238689 34.730604 1.948419 -9.437239 -9.163048 -1.127257 11.479752 -9.859796 -7.863193 -19.156667 17.545423 21.793762 -45.451467 -32.967007 -2.514298 4.239020 -10.031011 -7.410985 -31.244349 -9.420523 -92.844929 73.682082 -108.315899 -3.063994 -4.683575 7.065294 0.018097 0.237516 0.037300 4.505964 -31.621382 11.972325 76.784663 85.220934 79.231976 -0.942192 1.029188 -1.103266 -0.050132 -0.194994 -0.017001
